<?xml version="1.0" standalone="no"?>
<!DOCTYPE svg PUBLIC "-//W3C//DTD SVG 1.0//EN" "http://www.w3.org/TR/2001/REC-SVG-20010904/DTD/svg10.dtd">
<svg fill="#04212f" xmlns="http://www.w3.org/2000/svg" xmlns:xlink="http://www.w3.org/1999/xlink" id="body_1" width="1024" height="768">

<g transform="matrix(0.768 0 0 0.768 128.00003 -0)">
	<g>
	</g>
    <path d="" stroke="#04212f" stroke-width="20" stroke-linecap="square" fill="#04212f"/>
	<g>
	</g>
    <path d="M971.51 413.19C 964.72003 379.72 954.45 347.52002 941.10004 316.96C 926.09 282.61 907.18005 250.35999 884.91003 220.73999L884.91003 220.73999L884.91003 220.68999C 857.55005 184.25998 825.14 151.84999 788.69006 124.469986C 759.0801 102.22999 726.82007 83.30998 692.4601 68.29999C 661.9101 54.959988 629.69006 44.679985 596.2201 37.899986C 565.1401 31.589987 532.9601 28.269985 500.0101 28.269985C 467.06012 28.269985 434.8801 31.589985 403.7801 37.899986C 370.3101 44.679985 338.1001 54.959984 307.5401 68.29999C 273.2001 83.30999 240.9401 102.219986 211.33011 124.50999L211.33011 124.50999L211.27011 124.50999C 174.8601 151.87 142.4501 184.27998 115.09011 220.68999C 115.09011 220.68999 115.09011 220.73999 115.05011 220.73999C 92.80011 250.35999 73.89011 282.61 58.88011 316.96C 45.55011 347.52 35.27011 379.72 28.490112 413.19C 22.170113 444.3 18.860111 476.48 18.860111 509.43C 18.860111 542.37 22.17011 574.56 28.490112 605.64C 35.27011 639.11 45.55011 671.33 58.88011 701.88C 73.890114 736.24 92.820114 768.5 115.09011 798.15C 142.43011 834.56 174.84012 866.97003 211.27011 894.33C 211.27011 894.33 211.33011 894.33 211.33011 894.36005C 240.19011 916.04004 271.6001 934.56006 304.9901 949.38007C 305.8301 949.7701 306.6801 950.1501 307.5401 950.5201C 317.6701 954.9201 328.0001 958.8301 338.4001 962.5501C 347.49008 965.7901 357.8701 971.1701 367.5401 971.6801C 394.3901 973.1201 405.6301 937.6701 405.1801 916.77014C 404.9501 905.91016 401.7101 894.85016 394.62012 886.61017C 384.9501 875.3802 371.2301 872.73016 358.20013 867.40015C 340.79013 860.29016 323.83014 852.2501 307.54013 842.83014C 285.32013 829.98016 264.52014 814.9901 245.41013 798.1101C 233.36012 787.4801 221.98013 776.1001 211.33012 764.0301C 194.45012 744.9001 179.44012 724.1001 166.59012 701.88007C 149.36012 672.10004 136.01012 639.7801 127.22012 605.6401C 119.300125 574.8901 115.090126 542.6501 115.090126 509.43008C 115.090126 476.20007 119.300125 443.9401 127.230125 413.1901C 136.01013 379.0501 149.36012 346.7401 166.59012 316.96008C 179.44012 294.74008 194.45012 273.9401 211.33012 254.81009C 221.96013 242.76009 233.34012 231.3801 245.39012 220.74008C 264.5201 203.87009 285.32013 188.86008 307.54013 176.01009C 337.32013 158.78009 369.64014 145.42009 403.78012 136.65009C 434.5201 128.7201 466.78012 124.510086 500.01013 124.510086C 533.2401 124.510086 565.4801 128.7201 596.22015 136.63008C 630.36017 145.42007 662.6802 158.78008 692.46014 176.01009C 714.6801 188.86009 735.48016 203.87009 754.61017 220.74008C 766.6802 231.40009 778.0602 242.78009 788.6902 254.83008C 805.5702 273.94006 820.5602 294.74008 833.41016 316.96008C 850.64014 346.74008 863.9902 379.05008 872.77014 413.1901C 880.70013 443.9401 884.91016 476.2001 884.91016 509.43008C 884.91016 542.6501 880.70013 574.8901 872.78015 605.6401C 865.85016 632.57007 856.0701 658.37006 843.79016 682.68005C 838.95013 694.17004 829.16016 712.98004 810.0002 729.17004C 801.91016 736.00006 764.7202 767.41003 733.3302 754.17004C 712.3102 745.30005 703.9002 720.63007 700.0002 709.17004C 700.0002 709.17004 696.73016 699.59 692.4602 652.29004L692.4602 652.29004L692.4602 316.96C 690.80023 314.8 672.3502 291.61 641.55023 293.02C 614.0902 294.28998 598.4002 314.11 596.2202 316.96L596.2202 316.96L596.2202 342.69998C 567.9202 326.33 535.0402 316.96 500.01022 316.96C 464.96024 316.96 432.08023 326.33 403.7802 342.72C 374.5502 359.61 350.19022 383.97 333.3002 413.19C 316.91022 441.5 307.5402 474.38 307.5402 509.43C 307.5402 544.45996 316.9102 577.33 333.28018 605.64C 350.1902 634.87 374.55017 659.23004 403.78018 676.12C 432.08017 692.51 464.96017 701.88 500.0102 701.88C 526.23016 701.88 546.8302 696.55 558.5102 692.82C 574.3002 687.78 586.98016 681.48 596.2102 676.14C 593.6102 693.95 591.6502 721.37 597.8202 753.72003C 602.17017 776.55005 608.5102 806.89 631.6002 835.99005C 656.1602 866.94006 693.9202 887.82007 733.4102 889.2001C 776.50024 890.7101 818.00024 869.5201 849.37024 839.9501C 888.9702 802.63007 919.40027 751.4801 941.08026 701.87006C 954.43024 671.32007 964.70026 639.10004 971.49023 605.63007C 977.81024 574.55005 981.12024 542.36005 981.12024 509.42007C 981.14 476.48 977.83 444.3 971.51 413.19zM596.21 511.24C 595.26 562.69 553.27 604.68 501.82 605.63C 447.22 606.63 402.77002 562.17 403.79 507.59C 404.75 456.15 446.73 414.16998 498.17 413.21C 552.75 412.19 597.21 456.64 596.21 511.24z" stroke="#000000" stroke-width="20" stroke-linecap="square" fill="none" />
	<g>
	</g>
    <path d="" stroke="#04212f" stroke-width="5" stroke-linecap="square" fill="#04212f" />
</g>
</svg>