<?xml version="1.0" encoding="UTF-8" standalone="no"?>
<svg
   xmlns:dc="http://purl.org/dc/elements/1.1/"
   xmlns:cc="http://creativecommons.org/ns#"
   xmlns:rdf="http://www.w3.org/1999/02/22-rdf-syntax-ns#"
   xmlns:svg="http://www.w3.org/2000/svg"
   xmlns="http://www.w3.org/2000/svg"
   xmlns:sodipodi="http://sodipodi.sourceforge.net/DTD/sodipodi-0.dtd"
   xmlns:inkscape="http://www.inkscape.org/namespaces/inkscape"
   version="1.1"
   id="Layer_1"
   x="0px"
   y="0px"
   viewBox="0 0 1000 1000"
   style="enable-background:new 0 0 1000 1000;"
   xml:space="preserve"
   sodipodi:docname="web.svgz"><metadata
   id="metadata29"><rdf:RDF><cc:Work
       rdf:about=""><dc:format>image/svg+xml</dc:format><dc:type
         rdf:resource="http://purl.org/dc/dcmitype/StillImage" /></cc:Work></rdf:RDF></metadata><defs
   id="defs27" /><sodipodi:namedview
   pagecolor="#ffffff"
   bordercolor="#666666"
   borderopacity="1"
   objecttolerance="10"
   gridtolerance="10"
   guidetolerance="10"
   inkscape:pageopacity="0"
   inkscape:pageshadow="2"
   inkscape:window-width="640"
   inkscape:window-height="480"
   id="namedview25" />
<style
   type="text/css"
   id="style2">
	.st0{fill:none;stroke:#053246;stroke-width:20;stroke-linecap:round;stroke-linejoin:round;stroke-miterlimit:10;}
	.st1{fill:#053246;}
</style>
<g
   id="g22">
	<path
   id="rect4"
   style="fill:none;stroke:#053246;stroke-width:20;stroke-linecap:round;stroke-linejoin:round;stroke-miterlimit:10"
   d="M 98.07,188.69 H 911.85998 V 324.90001 H 98.07 Z"
   class="st0" />
	<path
   id="polyline6"
   style="fill:none;stroke:#053246;stroke-width:20;stroke-linecap:round;stroke-linejoin:round;stroke-miterlimit:10"
   d="M 911.86,385.24 V 807.66 H 98.07 V 385.24"
   class="st0" />
	<path
   id="rect8"
   style="fill:none;stroke:#053246;stroke-width:20;stroke-linecap:round;stroke-linejoin:round;stroke-miterlimit:10"
   d="m 175.66,404.20999 h 270.69001 v 318.97 H 175.66 Z"
   class="st0" />
	<path
   id="line10"
   style="fill:none;stroke:#053246;stroke-width:20;stroke-linecap:round;stroke-linejoin:round;stroke-miterlimit:10"
   d="M 530.83002,466.28 836,468"
   class="st0" />
	<path
   id="line12"
   style="fill:none;stroke:#053246;stroke-width:20;stroke-linecap:round;stroke-linejoin:round;stroke-miterlimit:10"
   d="M 530.83002,562.83002 836,564.54999"
   class="st0" />
	<path
   id="line14"
   style="fill:none;stroke:#053246;stroke-width:20;stroke-linecap:round;stroke-linejoin:round;stroke-miterlimit:10"
   d="M 530.83002,659.38 836,661.09998"
   class="st0" />
	<path
   id="circle16"
   style="fill:#053246"
   d="m 182.97999,256.79001 a 14.22,14.22 0 0 1 -14.22,14.22 14.22,14.22 0 0 1 -14.22,-14.22 14.22,14.22 0 0 1 14.22,-14.22 14.22,14.22 0 0 1 14.22,14.22 z"
   class="st1" />
	<path
   id="circle18"
   style="fill:#053246"
   d="m 261.86,256.79001 a 14.22,14.22 0 0 1 -14.22,14.22 14.22,14.22 0 0 1 -14.22,-14.22 14.22,14.22 0 0 1 14.22,-14.22 14.22,14.22 0 0 1 14.22,14.22 z"
   class="st1" />
	<path
   id="circle20"
   style="fill:#053246"
   d="m 340.73999,256.79001 a 14.22,14.22 0 0 1 -14.22,14.22 14.22,14.22 0 0 1 -14.22,-14.22 14.22,14.22 0 0 1 14.22,-14.22 14.22,14.22 0 0 1 14.22,14.22 z"
   class="st1" />
</g>
</svg>
